<svg t="1736301385678" class="icon" viewBox="0 0 1024 1024" version="1.1" xmlns="http://www.w3.org/2000/svg" p-id="1013" width="32" height="32"><path d="M513.088 267.2l219.008 86.944-219.712 87.968-219.008-86.976 219.712-87.968m0-59.168c-2.56 0-5.12 0.48-7.552 1.44L190.72 335.488c-17.6 7.008-17.6 32.48-0.064 39.488l314.336 124.864a19.776 19.776 0 0 0 15.008 0l314.816-126.048c17.6-7.008 17.6-32.48 0.064-39.488l-314.4-124.864a19.68 19.68 0 0 0-7.392-1.44z" fill="#172B3D" p-id="1014"></path><path d="M509.504 651.744c-5.952 0-11.968-1.152-17.632-3.424l-298.144-119.104a27.936 27.936 0 0 1-15.648-36.544 28.416 28.416 0 0 1 36.896-15.488l294.624 117.76 295.072-118.848a28.416 28.416 0 0 1 36.96 15.392 27.968 27.968 0 0 1-15.552 36.608L527.36 648.32a48.64 48.64 0 0 1-17.888 3.424z" fill="#172B3D" p-id="1015"></path><path d="M511.04 816c-6.016 0-11.968-1.152-17.632-3.424l-298.24-119.136a27.904 27.904 0 0 1-15.616-36.48 28.512 28.512 0 0 1 36.896-15.584l294.624 117.696 295.072-118.784a28.48 28.48 0 0 1 36.96 15.424 28.032 28.032 0 0 1-15.552 36.576l-298.688 120.224a47.04 47.04 0 0 1-17.792 3.488z" fill="#0252D9" p-id="1016"></path></svg>